<svg width="286" height="171" viewBox="0 0 286 171" fill="none" xmlns="http://www.w3.org/2000/svg">
<rect x="12.5" y="16.5" width="273" height="154" stroke="black"/>
<rect x="0.5" y="0.5" width="273" height="154" fill="white" stroke="black"/>
<path d="M31.5838 106.545V132H28.5014V109.777H28.3523L22.1378 113.903V110.771L28.5014 106.545H31.5838ZM47.207 132.348C45.3344 132.348 43.7393 131.838 42.4219 130.819C41.1044 129.792 40.0977 128.304 39.4016 126.357C38.7056 124.402 38.3576 122.04 38.3576 119.273C38.3576 116.522 38.7056 114.173 39.4016 112.225C40.1059 110.27 41.1168 108.779 42.4343 107.751C43.7601 106.715 45.351 106.197 47.207 106.197C49.0631 106.197 50.6499 106.715 51.9673 107.751C53.2931 108.779 54.304 110.27 55 112.225C55.7043 114.173 56.0565 116.522 56.0565 119.273C56.0565 122.04 55.7085 124.402 55.0124 126.357C54.3164 128.304 53.3097 129.792 51.9922 130.819C50.6747 131.838 49.0797 132.348 47.207 132.348ZM47.207 129.614C49.0631 129.614 50.5049 128.719 51.5323 126.929C52.5598 125.139 53.0735 122.587 53.0735 119.273C53.0735 117.069 52.8374 115.192 52.3651 113.642C51.901 112.093 51.2299 110.912 50.3516 110.1C49.4815 109.288 48.4334 108.882 47.207 108.882C45.3675 108.882 43.9299 109.789 42.8942 111.604C41.8584 113.41 41.3406 115.967 41.3406 119.273C41.3406 121.477 41.5726 123.349 42.0366 124.891C42.5006 126.432 43.1676 127.604 44.0376 128.408C44.916 129.212 45.9724 129.614 47.207 129.614ZM69.082 132.348C67.2094 132.348 65.6143 131.838 64.2969 130.819C62.9794 129.792 61.9727 128.304 61.2766 126.357C60.5806 124.402 60.2326 122.04 60.2326 119.273C60.2326 116.522 60.5806 114.173 61.2766 112.225C61.9809 110.27 62.9918 108.779 64.3093 107.751C65.6351 106.715 67.226 106.197 69.082 106.197C70.9381 106.197 72.5249 106.715 73.8423 107.751C75.1681 108.779 76.179 110.27 76.875 112.225C77.5793 114.173 77.9315 116.522 77.9315 119.273C77.9315 122.04 77.5835 124.402 76.8874 126.357C76.1914 128.304 75.1847 129.792 73.8672 130.819C72.5497 131.838 70.9547 132.348 69.082 132.348ZM69.082 129.614C70.9381 129.614 72.3799 128.719 73.4073 126.929C74.4348 125.139 74.9485 122.587 74.9485 119.273C74.9485 117.069 74.7124 115.192 74.2401 113.642C73.776 112.093 73.1049 110.912 72.2266 110.1C71.3565 109.288 70.3084 108.882 69.082 108.882C67.2425 108.882 65.8049 109.789 64.7692 111.604C63.7334 113.41 63.2156 115.967 63.2156 119.273C63.2156 121.477 63.4476 123.349 63.9116 124.891C64.3756 126.432 65.0426 127.604 65.9126 128.408C66.791 129.212 67.8474 129.614 69.082 129.614ZM90.957 132.348C89.0844 132.348 87.4893 131.838 86.1719 130.819C84.8544 129.792 83.8477 128.304 83.1516 126.357C82.4556 124.402 82.1076 122.04 82.1076 119.273C82.1076 116.522 82.4556 114.173 83.1516 112.225C83.8559 110.27 84.8668 108.779 86.1843 107.751C87.5101 106.715 89.101 106.197 90.957 106.197C92.8131 106.197 94.3999 106.715 95.7173 107.751C97.0431 108.779 98.054 110.27 98.75 112.225C99.4543 114.173 99.8065 116.522 99.8065 119.273C99.8065 122.04 99.4585 124.402 98.7624 126.357C98.0664 128.304 97.0597 129.792 95.7422 130.819C94.4247 131.838 92.8297 132.348 90.957 132.348ZM90.957 129.614C92.8131 129.614 94.2549 128.719 95.2823 126.929C96.3098 125.139 96.8235 122.587 96.8235 119.273C96.8235 117.069 96.5874 115.192 96.1151 113.642C95.651 112.093 94.9799 110.912 94.1016 110.1C93.2315 109.288 92.1834 108.882 90.957 108.882C89.1175 108.882 87.6799 109.789 86.6442 111.604C85.6084 113.41 85.0906 115.967 85.0906 119.273C85.0906 121.477 85.3226 123.349 85.7866 124.891C86.2506 126.432 86.9176 127.604 87.7876 128.408C88.666 129.212 89.7224 129.614 90.957 129.614Z" fill="black"/>
</svg>
