<svg width="370" height="137" viewBox="0 0 370 137" fill="none" xmlns="http://www.w3.org/2000/svg">
<path d="M3.85 50V1.77H20.16C28.0933 1.77 34.0667 3.07667 38.08 5.69C42.14 8.25667 44.17 12.06 44.17 17.1C44.17 20.6 43.2833 23.5867 41.51 26.06C39.7833 28.4867 37.3333 30.3533 34.16 31.66C30.9867 32.92 27.2533 33.55 22.96 33.55H19.32V50H3.85ZM22.33 23.82C24.8033 23.82 26.7167 23.3067 28.07 22.28C29.4233 21.2533 30.1 19.7133 30.1 17.66C30.1 15.7467 29.4467 14.3233 28.14 13.39C26.8333 12.41 24.9433 11.92 22.47 11.92H19.32V23.82H22.33ZM49.1723 50V1.84H64.9223V19.97H79.8323V1.84H95.6523V50H79.8323V31.03H64.9223V50H49.1723ZM127.111 51.12C122.025 51.12 117.545 50.0467 113.671 47.9C109.798 45.7533 106.765 42.79 104.571 39.01C102.425 35.23 101.351 30.89 101.351 25.99C101.351 21.0433 102.425 16.68 104.571 12.9C106.765 9.12 109.798 6.15667 113.671 4.01C117.545 1.86333 122.025 0.789999 127.111 0.789999C132.198 0.789999 136.678 1.86333 140.551 4.01C144.425 6.11 147.435 9.05 149.581 12.83C151.775 16.61 152.871 20.9967 152.871 25.99C152.871 30.89 151.775 35.23 149.581 39.01C147.435 42.79 144.425 45.7533 140.551 47.9C136.678 50.0467 132.198 51.12 127.111 51.12ZM127.111 38.38C130.051 38.38 132.455 37.2367 134.321 34.95C136.235 32.6633 137.191 29.6533 137.191 25.92C137.191 23.4 136.748 21.1833 135.861 19.27C135.021 17.3567 133.831 15.8633 132.291 14.79C130.798 13.67 129.048 13.11 127.041 13.11C124.101 13.11 121.698 14.3 119.831 16.68C117.965 19.0133 117.031 22.0933 117.031 25.92C117.031 29.6533 117.965 32.6633 119.831 34.95C121.698 37.2367 124.125 38.38 127.111 38.38ZM164.74 50V12.9H153.89V1.84H191.9V12.9H181.05V50H164.74ZM218.644 51.12C213.558 51.12 209.078 50.0467 205.204 47.9C201.331 45.7533 198.298 42.79 196.104 39.01C193.958 35.23 192.884 30.89 192.884 25.99C192.884 21.0433 193.958 16.68 196.104 12.9C198.298 9.12 201.331 6.15667 205.204 4.01C209.078 1.86333 213.558 0.789999 218.644 0.789999C223.731 0.789999 228.211 1.86333 232.084 4.01C235.958 6.11 238.968 9.05 241.114 12.83C243.308 16.61 244.404 20.9967 244.404 25.99C244.404 30.89 243.308 35.23 241.114 39.01C238.968 42.79 235.958 45.7533 232.084 47.9C228.211 50.0467 223.731 51.12 218.644 51.12ZM218.644 38.38C221.584 38.38 223.988 37.2367 225.854 34.95C227.768 32.6633 228.724 29.6533 228.724 25.92C228.724 23.4 228.281 21.1833 227.394 19.27C226.554 17.3567 225.364 15.8633 223.824 14.79C222.331 13.67 220.581 13.11 218.574 13.11C215.634 13.11 213.231 14.3 211.364 16.68C209.498 19.0133 208.564 22.0933 208.564 25.92C208.564 29.6533 209.498 32.6633 211.364 34.95C213.231 37.2367 215.658 38.38 218.644 38.38ZM250.08 50V1.84H265.9V50H250.08ZM288.296 51.12C285.356 51.12 282.369 50.7467 279.336 50C276.303 49.3 273.736 48.3433 271.636 47.13L274.156 35.72C276.863 37.1667 279.383 38.1233 281.716 38.59C284.096 39.01 286.289 39.22 288.296 39.22C290.163 39.22 291.563 38.9167 292.496 38.31C293.476 37.7033 293.966 36.8867 293.966 35.86C293.966 34.9267 293.429 34.2033 292.356 33.69C291.283 33.13 289.883 32.6167 288.156 32.15C286.476 31.6833 284.679 31.1467 282.766 30.54C280.853 29.8867 279.033 29.0467 277.306 28.02C275.626 26.9467 274.249 25.5467 273.176 23.82C272.103 22.0467 271.566 19.83 271.566 17.17C271.566 13.81 272.383 10.9167 274.016 8.49C275.649 6.01666 277.983 4.12666 281.016 2.82C284.049 1.46667 287.619 0.789999 291.726 0.789999C294.479 0.789999 297.163 1.16333 299.776 1.91C302.436 2.61 304.559 3.56666 306.146 4.78L303.766 15.07C301.386 14.09 299.239 13.39 297.326 12.97C295.459 12.5033 293.686 12.27 292.006 12.27C290.046 12.27 288.553 12.55 287.526 13.11C286.499 13.67 285.986 14.4167 285.986 15.35C285.986 16.2367 286.523 16.96 287.596 17.52C288.669 18.08 290.046 18.6167 291.726 19.13C293.406 19.6433 295.203 20.2267 297.116 20.88C299.029 21.5333 300.826 22.3967 302.506 23.47C304.186 24.5433 305.563 25.9433 306.636 27.67C307.709 29.3967 308.246 31.5667 308.246 34.18C308.246 39.5933 306.473 43.77 302.926 46.71C299.426 49.65 294.549 51.12 288.296 51.12ZM313.039 50V1.84H327.599L339.639 25.22L351.399 1.84H365.959V50H351.399V24.8L342.509 41.6H336.559L327.599 24.8V50H313.039Z" fill="black"/>
<mask id="path-2-outside-1_50_339" maskUnits="userSpaceOnUse" x="1" y="84" width="367" height="54" fill="black">
<rect fill="white" x="1" y="84" width="367" height="54"/>
<path d="M27.88 136.12C22.84 136.12 18.43 135.117 14.65 133.11C10.9167 131.057 8 128.187 5.9 124.5C3.84667 120.813 2.82 116.52 2.82 111.62C2.82 106.58 3.89333 102.123 6.04 98.25C8.23333 94.3767 11.22 91.3433 15 89.15C18.8267 86.91 23.2133 85.79 28.16 85.79C33.6667 85.79 37.9833 86.8633 41.11 89.01L39.22 100.14C37.8667 99.4867 36.4433 99.02 34.95 98.74C33.5033 98.4133 32.1267 98.25 30.82 98.25C26.9933 98.25 23.9833 99.3933 21.79 101.68C19.5967 103.967 18.5 107.14 18.5 111.2C18.5 115.027 19.55 118.037 21.65 120.23C23.7967 122.377 26.76 123.45 30.54 123.45C32.0333 123.45 33.3867 123.31 34.6 123.03C35.86 122.75 37.4 122.237 39.22 121.49L41.18 132.55C37.12 134.93 32.6867 136.12 27.88 136.12ZM74.955 136.12C69.8683 136.12 65.3883 135.047 61.515 132.9C57.6417 130.753 54.6083 127.79 52.415 124.01C50.2683 120.23 49.195 115.89 49.195 110.99C49.195 106.043 50.2683 101.68 52.415 97.9C54.6083 94.12 57.6417 91.1567 61.515 89.01C65.3883 86.8633 69.8683 85.79 74.955 85.79C80.0417 85.79 84.5217 86.8633 88.395 89.01C92.2683 91.11 95.2783 94.05 97.425 97.83C99.6183 101.61 100.715 105.997 100.715 110.99C100.715 115.89 99.6183 120.23 97.425 124.01C95.2783 127.79 92.2683 130.753 88.395 132.9C84.5217 135.047 80.0417 136.12 74.955 136.12ZM74.955 123.38C77.895 123.38 80.2983 122.237 82.165 119.95C84.0783 117.663 85.035 114.653 85.035 110.92C85.035 108.4 84.5917 106.183 83.705 104.27C82.865 102.357 81.675 100.863 80.135 99.79C78.6417 98.67 76.8917 98.11 74.885 98.11C71.945 98.11 69.5417 99.3 67.675 101.68C65.8083 104.013 64.875 107.093 64.875 110.92C64.875 114.653 65.8083 117.663 67.675 119.95C69.5417 122.237 71.9683 123.38 74.955 123.38ZM113.391 135V86.84H128.511V123.94H145.591L144.891 135H113.391ZM180.01 136.12C174.923 136.12 170.443 135.047 166.57 132.9C162.696 130.753 159.663 127.79 157.47 124.01C155.323 120.23 154.25 115.89 154.25 110.99C154.25 106.043 155.323 101.68 157.47 97.9C159.663 94.12 162.696 91.1567 166.57 89.01C170.443 86.8633 174.923 85.79 180.01 85.79C185.096 85.79 189.576 86.8633 193.45 89.01C197.323 91.11 200.333 94.05 202.48 97.83C204.673 101.61 205.77 105.997 205.77 110.99C205.77 115.89 204.673 120.23 202.48 124.01C200.333 127.79 197.323 130.753 193.45 132.9C189.576 135.047 185.096 136.12 180.01 136.12ZM180.01 123.38C182.95 123.38 185.353 122.237 187.22 119.95C189.133 117.663 190.09 114.653 190.09 110.92C190.09 108.4 189.646 106.183 188.76 104.27C187.92 102.357 186.73 100.863 185.19 99.79C183.696 98.67 181.946 98.11 179.94 98.11C177 98.11 174.596 99.3 172.73 101.68C170.863 104.013 169.93 107.093 169.93 110.92C169.93 114.653 170.863 117.663 172.73 119.95C174.596 122.237 177.023 123.38 180.01 123.38ZM254.916 136.12C251.556 136.12 248.779 135.63 246.586 134.65C244.392 133.623 242.642 132.223 241.336 130.45C240.029 128.677 239.049 126.6 238.396 124.22C237.742 121.84 237.299 119.273 237.066 116.52H233.776V135H218.446V86.84H238.256C245.909 86.84 251.416 88.1933 254.776 90.9C258.182 93.56 259.886 97.1767 259.886 101.75C259.886 104.503 259.139 106.977 257.646 109.17C256.152 111.317 253.749 113.113 250.436 114.56C250.622 115.587 250.786 116.427 250.926 117.08C251.066 117.733 251.276 118.457 251.556 119.25C252.162 120.93 252.909 122.097 253.796 122.75C254.729 123.403 255.989 123.73 257.576 123.73C258.602 123.73 259.629 123.59 260.656 123.31L261.496 134.79C260.562 135.163 259.559 135.467 258.486 135.7C257.459 135.98 256.269 136.12 254.916 136.12ZM233.776 106.93H236.436C239.889 106.93 242.316 106.557 243.716 105.81C245.162 105.017 245.886 103.687 245.886 101.82C245.886 100.233 245.302 99.09 244.136 98.39C242.969 97.6433 241.126 97.27 238.606 97.27H233.776V106.93ZM272.75 135V86.84H306.56V97.48H289.76V106.02H305.09V114.84H289.76V124.01H306.56V135H272.75ZM319.877 135V86.84H336.607C343.607 86.84 349.301 87.8433 353.687 89.85C358.121 91.8567 361.364 94.6333 363.417 98.18C365.517 101.727 366.567 105.857 366.567 110.57C366.567 118.27 364.024 124.267 358.937 128.56C353.897 132.853 346.221 135 335.907 135H319.877ZM335.347 122.75H339.827C343.561 122.75 346.337 121.63 348.157 119.39C349.977 117.103 350.887 114.117 350.887 110.43C350.887 107.023 350.001 104.293 348.227 102.24C346.501 100.14 343.701 99.09 339.827 99.09H335.347V122.75Z"/>
</mask>
<path d="M14.65 133.11L14.1681 133.986L14.1746 133.99L14.1811 133.993L14.65 133.11ZM5.9 124.5L5.02632 124.987L5.03108 124.995L5.9 124.5ZM6.04 98.25L5.16979 97.7572L5.16535 97.7652L6.04 98.25ZM15 89.15L15.5019 90.0149L15.5052 90.013L15 89.15ZM41.11 89.01L42.0959 89.1774L42.2029 88.5473L41.676 88.1856L41.11 89.01ZM39.22 100.14L38.7853 101.041L39.9832 101.619L40.2059 100.307L39.22 100.14ZM34.95 98.74L34.7297 99.7154L34.7477 99.7195L34.7657 99.7229L34.95 98.74ZM21.79 101.68L22.5117 102.372V102.372L21.79 101.68ZM21.65 120.23L20.9277 120.922L20.9352 120.929L20.9429 120.937L21.65 120.23ZM34.6 123.03L34.3831 122.054L34.3751 122.056L34.6 123.03ZM39.22 121.49L40.2047 121.316L39.9882 120.094L38.8404 120.565L39.22 121.49ZM41.18 132.55L41.6857 133.413L42.2861 133.061L42.1647 132.376L41.18 132.55ZM27.88 135.12C22.9744 135.12 18.7308 134.144 15.1189 132.227L14.1811 133.993C18.1292 136.089 22.7056 137.12 27.88 137.12V135.12ZM15.1319 132.234C11.5596 130.269 8.77716 127.531 6.76892 124.005L5.03108 124.995C7.22284 128.843 10.2738 131.844 14.1681 133.986L15.1319 132.234ZM6.77364 124.013C4.81567 120.498 3.82 116.377 3.82 111.62H1.82C1.82 116.663 2.87767 121.129 5.02636 124.987L6.77364 124.013ZM3.82 111.62C3.82 106.726 4.86099 102.44 6.91465 98.7347L5.16535 97.7652C2.92568 101.806 1.82 106.434 1.82 111.62H3.82ZM6.91017 98.7427C9.01768 95.021 11.8785 92.1174 15.5019 90.0149L14.4981 88.2851C10.5615 90.5693 7.44899 93.7324 5.16983 97.7572L6.91017 98.7427ZM15.5052 90.013C19.1614 87.8728 23.3699 86.79 28.16 86.79V84.79C23.0568 84.79 18.4919 85.9472 14.4948 88.287L15.5052 90.013ZM28.16 86.79C33.5516 86.79 37.6436 87.8431 40.544 89.8344L41.676 88.1856C38.3231 85.8836 33.7817 84.79 28.16 84.79V86.79ZM40.1241 88.8426L38.2341 99.9726L40.2059 100.307L42.0959 89.1774L40.1241 88.8426ZM39.6548 99.2394C38.221 98.5473 36.7134 98.0532 35.1343 97.7571L34.7657 99.7229C36.1733 99.9868 37.5123 100.426 38.7853 101.041L39.6548 99.2394ZM35.1703 97.7646C33.6608 97.4237 32.2099 97.25 30.82 97.25V99.25C32.0434 99.25 33.3458 99.4029 34.7297 99.7154L35.1703 97.7646ZM30.82 97.25C26.7817 97.25 23.4886 98.4645 21.0683 100.988L22.5117 102.372C24.4781 100.322 27.2049 99.25 30.82 99.25V97.25ZM21.0683 100.988C18.6502 103.509 17.5 106.958 17.5 111.2H19.5C19.5 107.322 20.5432 104.424 22.5117 102.372L21.0683 100.988ZM17.5 111.2C17.5 115.214 18.6062 118.497 20.9277 120.922L22.3723 119.538C20.4938 117.576 19.5 114.839 19.5 111.2H17.5ZM20.9429 120.937C23.3207 123.315 26.5635 124.45 30.54 124.45V122.45C26.9565 122.45 24.2726 121.438 22.3571 119.523L20.9429 120.937ZM30.54 124.45C32.0945 124.45 33.5249 124.304 34.8249 124.004L34.3751 122.056C33.2484 122.316 31.9721 122.45 30.54 122.45V124.45ZM34.8169 124.006C36.1533 123.709 37.7512 123.173 39.5996 122.415L38.8404 120.565C37.0488 121.3 35.5667 121.791 34.3831 122.054L34.8169 124.006ZM38.2353 121.664L40.1953 132.724L42.1647 132.376L40.2047 121.316L38.2353 121.664ZM40.6743 131.687C36.7711 133.975 32.5129 135.12 27.88 135.12V137.12C32.8605 137.12 37.4689 135.885 41.6857 133.413L40.6743 131.687ZM61.515 132.9L61.0303 133.775L61.515 132.9ZM52.415 124.01L51.5454 124.504L51.5501 124.512L52.415 124.01ZM52.415 97.9L51.55 97.3981L51.5454 97.4062L52.415 97.9ZM61.515 89.01L61.0303 88.1353L61.515 89.01ZM88.395 89.01L87.9102 89.8847L87.9184 89.8891L88.395 89.01ZM97.425 97.83L96.5554 98.3238L96.5601 98.3319L97.425 97.83ZM97.425 124.01L96.56 123.508L96.5554 123.516L97.425 124.01ZM88.395 132.9L88.8798 133.775L88.395 132.9ZM82.165 119.95L81.398 119.308L81.3903 119.318L82.165 119.95ZM83.705 104.27L82.7894 104.672L82.7934 104.681L82.7977 104.69L83.705 104.27ZM80.135 99.79L79.535 100.59L79.5489 100.6L79.5632 100.61L80.135 99.79ZM67.675 101.68L68.4559 102.305L68.4619 102.297L67.675 101.68ZM67.675 119.95L68.4497 119.318L67.675 119.95ZM74.955 135.12C70.0125 135.12 65.7039 134.078 61.9997 132.025L61.0303 133.775C65.0727 136.015 69.7242 137.12 74.955 137.12V135.12ZM61.9997 132.025C58.2823 129.965 55.3813 127.13 53.2799 123.508L51.5501 124.512C53.8354 128.45 57.001 131.542 61.0303 133.775L61.9997 132.025ZM53.2846 123.516C51.2338 119.905 50.195 115.739 50.195 110.99H48.195C48.195 116.041 49.3028 120.555 51.5454 124.504L53.2846 123.516ZM50.195 110.99C50.195 106.192 51.2346 102.004 53.2846 98.3938L51.5454 97.4062C49.302 101.356 48.195 105.894 48.195 110.99H50.195ZM53.2799 98.4019C55.3813 94.7804 58.2823 91.9449 61.9997 89.8847L61.0303 88.1353C57.001 90.3684 53.8354 93.4596 51.5501 97.3981L53.2799 98.4019ZM61.9997 89.8847C65.7039 87.8317 70.0125 86.79 74.955 86.79V84.79C69.7242 84.79 65.0727 85.8949 61.0303 88.1353L61.9997 89.8847ZM74.955 86.79C79.8976 86.79 84.2061 87.8317 87.9103 89.8847L88.8798 88.1353C84.8373 85.8949 80.1858 84.79 74.955 84.79V86.79ZM87.9184 89.8891C91.6296 91.9012 94.5025 94.7088 96.5554 98.3238L98.2946 97.3362C96.0542 93.3912 92.907 90.3188 88.8716 88.1309L87.9184 89.8891ZM96.5601 98.3319C98.6529 101.939 99.715 106.147 99.715 110.99H101.715C101.715 105.846 100.584 101.281 98.2899 97.3281L96.5601 98.3319ZM99.715 110.99C99.715 115.736 98.6546 119.898 96.5601 123.508L98.2899 124.512C100.582 120.562 101.715 116.044 101.715 110.99H99.715ZM96.5554 123.516C94.5014 127.133 91.6259 129.966 87.9103 132.025L88.8798 133.775C92.9108 131.541 96.0553 128.447 98.2946 124.504L96.5554 123.516ZM87.9103 132.025C84.2061 134.078 79.8976 135.12 74.955 135.12V137.12C80.1858 137.12 84.8373 136.015 88.8798 133.775L87.9103 132.025ZM74.955 124.38C78.1967 124.38 80.884 123.101 82.9397 120.582L81.3903 119.318C79.7127 121.373 77.5933 122.38 74.955 122.38V124.38ZM82.9319 120.592C85.0308 118.083 86.035 114.827 86.035 110.92H84.035C84.035 114.48 83.1259 117.243 81.3981 119.308L82.9319 120.592ZM86.035 110.92C86.035 108.283 85.5708 105.918 84.6123 103.85L82.7977 104.69C83.6126 106.449 84.035 108.517 84.035 110.92H86.035ZM84.6207 103.868C83.7153 101.806 82.4144 100.16 80.7068 98.9696L79.5632 100.61C80.9356 101.567 82.0147 102.907 82.7894 104.672L84.6207 103.868ZM80.735 98.99C79.0553 97.7302 77.0908 97.11 74.885 97.11V99.11C76.6925 99.11 78.2281 99.6098 79.535 100.59L80.735 98.99ZM74.885 97.11C71.6277 97.11 68.938 98.4493 66.8881 101.063L68.4619 102.297C70.1453 100.151 72.2623 99.11 74.885 99.11V97.11ZM66.8941 101.055C64.8499 103.611 63.875 106.931 63.875 110.92H65.875C65.875 107.256 66.7668 104.416 68.4559 102.305L66.8941 101.055ZM63.875 110.92C63.875 114.821 64.8529 118.074 66.9003 120.582L68.4497 119.318C66.7638 117.252 65.875 114.485 65.875 110.92H63.875ZM66.9003 120.582C68.9595 123.105 71.6721 124.38 74.955 124.38V122.38C72.2645 122.38 70.1238 121.368 68.4497 119.318L66.9003 120.582ZM113.391 135H112.391V136H113.391V135ZM113.391 86.84V85.84H112.391V86.84H113.391ZM128.511 86.84H129.511V85.84H128.511V86.84ZM128.511 123.94H127.511V124.94H128.511V123.94ZM145.591 123.94L146.589 124.003L146.656 122.94H145.591V123.94ZM144.891 135V136H145.83L145.889 135.063L144.891 135ZM114.391 135V86.84H112.391V135H114.391ZM113.391 87.84H128.511V85.84H113.391V87.84ZM127.511 86.84V123.94H129.511V86.84H127.511ZM128.511 124.94H145.591V122.94H128.511V124.94ZM144.593 123.877L143.893 134.937L145.889 135.063L146.589 124.003L144.593 123.877ZM144.891 134H113.391V136H144.891V134ZM166.57 132.9L166.085 133.775L166.57 132.9ZM157.47 124.01L156.6 124.504L156.605 124.512L157.47 124.01ZM157.47 97.9L156.605 97.3981L156.6 97.4062L157.47 97.9ZM166.57 89.01L166.085 88.1353L166.57 89.01ZM193.45 89.01L192.965 89.8847L192.973 89.8891L193.45 89.01ZM202.48 97.83L201.61 98.3238L201.615 98.3319L202.48 97.83ZM202.48 124.01L201.615 123.508L201.61 123.516L202.48 124.01ZM193.45 132.9L193.934 133.775L193.45 132.9ZM187.22 119.95L186.453 119.308L186.445 119.318L187.22 119.95ZM188.76 104.27L187.844 104.672L187.848 104.681L187.852 104.69L188.76 104.27ZM185.19 99.79L184.59 100.59L184.604 100.6L184.618 100.61L185.19 99.79ZM172.73 101.68L173.511 102.305L173.517 102.297L172.73 101.68ZM172.73 119.95L173.504 119.318L172.73 119.95ZM180.01 135.12C175.067 135.12 170.759 134.078 167.054 132.025L166.085 133.775C170.127 136.015 174.779 137.12 180.01 137.12V135.12ZM167.054 132.025C163.337 129.965 160.436 127.13 158.335 123.508L156.605 124.512C158.89 128.45 162.056 131.542 166.085 133.775L167.054 132.025ZM158.339 123.516C156.289 119.905 155.25 115.739 155.25 110.99H153.25C153.25 116.041 154.358 120.555 156.6 124.504L158.339 123.516ZM155.25 110.99C155.25 106.192 156.289 102.004 158.339 98.3938L156.6 97.4062C154.357 101.356 153.25 105.894 153.25 110.99H155.25ZM158.335 98.4019C160.436 94.7804 163.337 91.9449 167.054 89.8847L166.085 88.1353C162.056 90.3684 158.89 93.4596 156.605 97.3981L158.335 98.4019ZM167.054 89.8847C170.759 87.8317 175.067 86.79 180.01 86.79V84.79C174.779 84.79 170.127 85.8949 166.085 88.1353L167.054 89.8847ZM180.01 86.79C184.952 86.79 189.261 87.8317 192.965 89.8847L193.934 88.1353C189.892 85.8949 185.24 84.79 180.01 84.79V86.79ZM192.973 89.8891C196.684 91.9012 199.557 94.7088 201.61 98.3238L203.349 97.3362C201.109 93.3912 197.962 90.3188 193.926 88.1309L192.973 89.8891ZM201.615 98.3319C203.708 101.939 204.77 106.147 204.77 110.99H206.77C206.77 105.846 205.638 101.281 203.345 97.3281L201.615 98.3319ZM204.77 110.99C204.77 115.736 203.709 119.898 201.615 123.508L203.345 124.512C205.637 120.562 206.77 116.044 206.77 110.99H204.77ZM201.61 123.516C199.556 127.133 196.681 129.966 192.965 132.025L193.934 133.775C197.965 131.541 201.11 128.447 203.349 124.504L201.61 123.516ZM192.965 132.025C189.261 134.078 184.952 135.12 180.01 135.12V137.12C185.24 137.12 189.892 136.015 193.934 133.775L192.965 132.025ZM180.01 124.38C183.251 124.38 185.939 123.101 187.994 120.582L186.445 119.318C184.767 121.373 182.648 122.38 180.01 122.38V124.38ZM187.987 120.592C190.085 118.083 191.09 114.827 191.09 110.92H189.09C189.09 114.48 188.181 117.243 186.453 119.308L187.987 120.592ZM191.09 110.92C191.09 108.283 190.625 105.918 189.667 103.85L187.852 104.69C188.667 106.449 189.09 108.517 189.09 110.92H191.09ZM189.675 103.868C188.77 101.806 187.469 100.16 185.761 98.9696L184.618 100.61C185.99 101.567 187.069 102.907 187.844 104.672L189.675 103.868ZM185.79 98.99C184.11 97.7302 182.145 97.11 179.94 97.11V99.11C181.747 99.11 183.283 99.6098 184.59 100.59L185.79 98.99ZM179.94 97.11C176.682 97.11 173.993 98.4493 171.943 101.063L173.517 102.297C175.2 100.151 177.317 99.11 179.94 99.11V97.11ZM171.949 101.055C169.905 103.611 168.93 106.931 168.93 110.92H170.93C170.93 107.256 171.821 104.416 173.511 102.305L171.949 101.055ZM168.93 110.92C168.93 114.821 169.908 118.074 171.955 120.582L173.504 119.318C171.818 117.252 170.93 114.485 170.93 110.92H168.93ZM171.955 120.582C174.014 123.105 176.727 124.38 180.01 124.38V122.38C177.319 122.38 175.179 121.368 173.504 119.318L171.955 120.582ZM246.586 134.65L246.162 135.556L246.17 135.559L246.178 135.563L246.586 134.65ZM241.336 130.45L242.141 129.857L241.336 130.45ZM238.396 124.22L239.36 123.955L238.396 124.22ZM237.066 116.52L238.062 116.436L237.985 115.52H237.066V116.52ZM233.776 116.52V115.52H232.776V116.52H233.776ZM233.776 135V136H234.776V135H233.776ZM218.446 135H217.446V136H218.446V135ZM218.446 86.84V85.84H217.446V86.84H218.446ZM254.776 90.9L254.148 91.6788L254.154 91.6835L254.16 91.6882L254.776 90.9ZM257.646 109.17L258.467 109.741L258.472 109.733L257.646 109.17ZM250.436 114.56L250.036 113.644L249.31 113.96L249.452 114.739L250.436 114.56ZM250.926 117.08L251.904 116.87V116.87L250.926 117.08ZM251.556 119.25L250.613 119.583L250.615 119.59L251.556 119.25ZM253.796 122.75L253.202 123.555L253.212 123.562L253.222 123.569L253.796 122.75ZM260.656 123.31L261.653 123.237L261.564 122.026L260.393 122.345L260.656 123.31ZM261.496 134.79L261.867 135.718L262.546 135.447L262.493 134.717L261.496 134.79ZM258.486 135.7L258.273 134.723L258.248 134.728L258.223 134.735L258.486 135.7ZM233.776 106.93H232.776V107.93H233.776V106.93ZM243.716 105.81L244.186 106.692L244.197 106.687L243.716 105.81ZM244.136 98.39L243.597 99.2323L243.609 99.2401L243.621 99.2475L244.136 98.39ZM233.776 97.27V96.27H232.776V97.27H233.776ZM254.916 135.12C251.644 135.12 249.018 134.642 246.994 133.737L246.178 135.563C248.54 136.618 251.467 137.12 254.916 137.12V135.12ZM247.01 133.744C244.952 132.781 243.339 131.483 242.141 129.857L240.531 131.043C241.946 132.964 243.833 134.465 246.162 135.556L247.01 133.744ZM242.141 129.857C240.915 128.193 239.985 126.231 239.36 123.955L237.431 124.485C238.113 126.969 239.143 129.16 240.531 131.043L242.141 129.857ZM239.36 123.955C238.725 121.641 238.291 119.135 238.062 116.436L236.069 116.604C236.307 119.412 236.76 122.039 237.431 124.485L239.36 123.955ZM237.066 115.52H233.776V117.52H237.066V115.52ZM232.776 116.52V135H234.776V116.52H232.776ZM233.776 134H218.446V136H233.776V134ZM219.446 135V86.84H217.446V135H219.446ZM218.446 87.84H238.256V85.84H218.446V87.84ZM238.256 87.84C245.839 87.84 251.059 89.19 254.148 91.6788L255.403 90.1212C251.772 87.1966 245.98 85.84 238.256 85.84V87.84ZM254.16 91.6882C257.308 94.1463 258.886 97.4639 258.886 101.75H260.886C260.886 96.8895 259.056 92.9737 255.391 90.1118L254.16 91.6882ZM258.886 101.75C258.886 104.311 258.195 106.586 256.819 108.607L258.472 109.733C260.083 107.367 260.886 104.696 260.886 101.75H258.886ZM256.825 108.599C255.47 110.546 253.242 112.244 250.036 113.644L250.836 115.476C254.256 113.983 256.835 112.087 258.467 109.741L256.825 108.599ZM249.452 114.739C249.639 115.771 249.805 116.622 249.948 117.29L251.904 116.87C251.767 116.231 251.605 115.403 251.42 114.381L249.452 114.739ZM249.948 117.29C250.099 117.994 250.322 118.759 250.613 119.583L252.499 118.917C252.229 118.154 252.033 117.473 251.904 116.87L249.948 117.29ZM250.615 119.59C251.251 121.351 252.086 122.732 253.202 123.555L254.389 121.945C253.732 121.461 253.074 120.509 252.496 118.91L250.615 119.59ZM253.222 123.569C254.378 124.378 255.862 124.73 257.576 124.73V122.73C256.116 122.73 255.08 122.428 254.369 121.931L253.222 123.569ZM257.576 124.73C258.694 124.73 259.81 124.577 260.919 124.275L260.393 122.345C259.449 122.603 258.51 122.73 257.576 122.73V124.73ZM259.658 123.383L260.498 134.863L262.493 134.717L261.653 123.237L259.658 123.383ZM261.124 133.862C260.247 134.212 259.297 134.5 258.273 134.723L258.698 136.677C259.821 136.433 260.878 136.114 261.867 135.718L261.124 133.862ZM258.223 134.735C257.301 134.987 256.203 135.12 254.916 135.12V137.12C256.335 137.12 257.617 136.973 258.749 136.665L258.223 134.735ZM233.776 107.93H236.436V105.93H233.776V107.93ZM236.436 107.93C239.903 107.93 242.55 107.565 244.186 106.692L243.245 104.928C242.081 105.548 239.875 105.93 236.436 105.93V107.93ZM244.197 106.687C246.011 105.692 246.886 103.994 246.886 101.82H244.886C244.886 103.38 244.313 104.342 243.235 104.933L244.197 106.687ZM246.886 101.82C246.886 99.9511 246.173 98.4461 244.65 97.5325L243.621 99.2475C244.432 99.7339 244.886 100.516 244.886 101.82H246.886ZM244.675 97.5477C243.262 96.6438 241.182 96.27 238.606 96.27V98.27C241.069 98.27 242.676 98.6428 243.597 99.2323L244.675 97.5477ZM238.606 96.27H233.776V98.27H238.606V96.27ZM232.776 97.27V106.93H234.776V97.27H232.776ZM272.75 135H271.75V136H272.75V135ZM272.75 86.84V85.84H271.75V86.84H272.75ZM306.56 86.84H307.56V85.84H306.56V86.84ZM306.56 97.48V98.48H307.56V97.48H306.56ZM289.76 97.48V96.48H288.76V97.48H289.76ZM289.76 106.02H288.76V107.02H289.76V106.02ZM305.09 106.02H306.09V105.02H305.09V106.02ZM305.09 114.84V115.84H306.09V114.84H305.09ZM289.76 114.84V113.84H288.76V114.84H289.76ZM289.76 124.01H288.76V125.01H289.76V124.01ZM306.56 124.01H307.56V123.01H306.56V124.01ZM306.56 135V136H307.56V135H306.56ZM273.75 135V86.84H271.75V135H273.75ZM272.75 87.84H306.56V85.84H272.75V87.84ZM305.56 86.84V97.48H307.56V86.84H305.56ZM306.56 96.48H289.76V98.48H306.56V96.48ZM288.76 97.48V106.02H290.76V97.48H288.76ZM289.76 107.02H305.09V105.02H289.76V107.02ZM304.09 106.02V114.84H306.09V106.02H304.09ZM305.09 113.84H289.76V115.84H305.09V113.84ZM288.76 114.84V124.01H290.76V114.84H288.76ZM289.76 125.01H306.56V123.01H289.76V125.01ZM305.56 124.01V135H307.56V124.01H305.56ZM306.56 134H272.75V136H306.56V134ZM319.877 135H318.877V136H319.877V135ZM319.877 86.84V85.84H318.877V86.84H319.877ZM353.687 89.85L353.271 90.7594L353.275 90.761L353.687 89.85ZM363.417 98.18L362.552 98.6811L362.557 98.6895L363.417 98.18ZM358.937 128.56L358.292 127.796L358.289 127.799L358.937 128.56ZM335.347 122.75H334.347V123.75H335.347V122.75ZM348.157 119.39L348.934 120.021L348.94 120.013L348.157 119.39ZM348.227 102.24L347.455 102.875L347.463 102.884L347.471 102.894L348.227 102.24ZM335.347 99.09V98.09H334.347V99.09H335.347ZM320.877 135V86.84H318.877V135H320.877ZM319.877 87.84H336.607V85.84H319.877V87.84ZM336.607 87.84C343.523 87.84 349.06 88.8331 353.271 90.7594L354.103 88.9406C349.541 86.8536 343.691 85.84 336.607 85.84V87.84ZM353.275 90.761C357.555 92.6982 360.622 95.3468 362.552 98.681L364.283 97.679C362.106 93.9198 358.687 91.0151 354.1 88.939L353.275 90.761ZM362.557 98.6895C364.553 102.061 365.567 106.01 365.567 110.57H367.567C367.567 105.704 366.482 101.393 364.278 97.6705L362.557 98.6895ZM365.567 110.57C365.567 118.027 363.117 123.723 358.292 127.796L359.582 129.324C364.931 124.81 367.567 118.513 367.567 110.57H365.567ZM358.289 127.799C353.507 131.872 346.109 134 335.907 134V136C346.332 136 354.288 133.834 359.586 129.321L358.289 127.799ZM335.907 134H319.877V136H335.907V134ZM335.347 123.75H339.827V121.75H335.347V123.75ZM339.827 123.75C343.766 123.75 346.871 122.56 348.933 120.021L347.381 118.759C345.804 120.7 343.355 121.75 339.827 121.75V123.75ZM348.94 120.013C350.934 117.507 351.887 114.283 351.887 110.43H349.887C349.887 113.951 349.021 116.7 347.375 118.767L348.94 120.013ZM351.887 110.43C351.887 106.847 350.951 103.864 348.984 101.586L347.471 102.894C349.05 104.723 349.887 107.2 349.887 110.43H351.887ZM349 101.605C347.013 99.1882 343.868 98.09 339.827 98.09V100.09C343.534 100.09 345.989 101.092 347.455 102.875L349 101.605ZM339.827 98.09H335.347V100.09H339.827V98.09ZM334.347 99.09V122.75H336.347V99.09H334.347Z" fill="black" mask="url(#path-2-outside-1_50_339)"/>
</svg>
