<svg width="314" height="314" viewBox="0 0 314 314" fill="none" xmlns="http://www.w3.org/2000/svg">
<path d="M11.1767 0.375H0.375V11.1767H11.1767V0.375Z" fill="black"/>
<path d="M21.9784 0.375H11.1767V11.1767H21.9784V0.375Z" fill="black"/>
<path d="M32.7802 0.375H21.9784V11.1767H32.7802V0.375Z" fill="black"/>
<path d="M43.5819 0.375H32.7802V11.1767H43.5819V0.375Z" fill="black"/>
<path d="M54.3836 0.375H43.5819V11.1767H54.3836V0.375Z" fill="black"/>
<path d="M65.1853 0.375H54.3836V11.1767H65.1853V0.375Z" fill="black"/>
<path d="M75.9871 0.375H65.1853V11.1767H75.9871V0.375Z" fill="black"/>
<path d="M97.5905 0.375H86.7888V11.1767H97.5905V0.375Z" fill="black"/>
<path d="M119.194 0.375H108.392V11.1767H119.194V0.375Z" fill="black"/>
<path d="M173.203 0.375H162.401V11.1767H173.203V0.375Z" fill="black"/>
<path d="M184.004 0.375H173.203V11.1767H184.004V0.375Z" fill="black"/>
<path d="M205.608 0.375H194.806V11.1767H205.608V0.375Z" fill="black"/>
<path d="M227.211 0.375H216.409V11.1767H227.211V0.375Z" fill="black"/>
<path d="M248.815 0.375H238.013V11.1767H248.815V0.375Z" fill="black"/>
<path d="M259.616 0.375H248.815V11.1767H259.616V0.375Z" fill="black"/>
<path d="M270.418 0.375H259.616V11.1767H270.418V0.375Z" fill="black"/>
<path d="M281.22 0.375H270.418V11.1767H281.22V0.375Z" fill="black"/>
<path d="M292.022 0.375H281.22V11.1767H292.022V0.375Z" fill="black"/>
<path d="M302.823 0.375H292.022V11.1767H302.823V0.375Z" fill="black"/>
<path d="M313.625 0.375H302.823V11.1767H313.625V0.375Z" fill="black"/>
<path d="M11.1767 11.1767H0.375V21.9784H11.1767V11.1767Z" fill="black"/>
<path d="M75.9871 11.1767H65.1853V21.9784H75.9871V11.1767Z" fill="black"/>
<path d="M108.392 11.1767H97.5905V21.9784H108.392V11.1767Z" fill="black"/>
<path d="M119.194 11.1767H108.392V21.9784H119.194V11.1767Z" fill="black"/>
<path d="M129.996 11.1767H119.194V21.9784H129.996V11.1767Z" fill="black"/>
<path d="M140.797 11.1767H129.996V21.9784H140.797V11.1767Z" fill="black"/>
<path d="M162.401 11.1767H151.599V21.9784H162.401V11.1767Z" fill="black"/>
<path d="M173.203 11.1767H162.401V21.9784H173.203V11.1767Z" fill="black"/>
<path d="M248.815 11.1767H238.013V21.9784H248.815V11.1767Z" fill="black"/>
<path d="M313.625 11.1767H302.823V21.9784H313.625V11.1767Z" fill="black"/>
<path d="M11.1767 21.9784H0.375V32.7802H11.1767V21.9784Z" fill="black"/>
<path d="M32.7802 21.9784H21.9784V32.7802H32.7802V21.9784Z" fill="black"/>
<path d="M43.5819 21.9784H32.7802V32.7802H43.5819V21.9784Z" fill="black"/>
<path d="M54.3836 21.9784H43.5819V32.7802H54.3836V21.9784Z" fill="black"/>
<path d="M75.9871 21.9784H65.1853V32.7802H75.9871V21.9784Z" fill="black"/>
<path d="M119.194 21.9784H108.392V32.7802H119.194V21.9784Z" fill="black"/>
<path d="M129.996 21.9784H119.194V32.7802H129.996V21.9784Z" fill="black"/>
<path d="M140.797 21.9784H129.996V32.7802H140.797V21.9784Z" fill="black"/>
<path d="M151.599 21.9784H140.797V32.7802H151.599V21.9784Z" fill="black"/>
<path d="M173.203 21.9784H162.401V32.7802H173.203V21.9784Z" fill="black"/>
<path d="M184.004 21.9784H173.203V32.7802H184.004V21.9784Z" fill="black"/>
<path d="M216.409 21.9784H205.608V32.7802H216.409V21.9784Z" fill="black"/>
<path d="M227.211 21.9784H216.409V32.7802H227.211V21.9784Z" fill="black"/>
<path d="M248.815 21.9784H238.013V32.7802H248.815V21.9784Z" fill="black"/>
<path d="M270.418 21.9784H259.616V32.7802H270.418V21.9784Z" fill="black"/>
<path d="M281.22 21.9784H270.418V32.7802H281.22V21.9784Z" fill="black"/>
<path d="M292.022 21.9784H281.22V32.7802H292.022V21.9784Z" fill="black"/>
<path d="M313.625 21.9784H302.823V32.7802H313.625V21.9784Z" fill="black"/>
<path d="M11.1767 32.7802H0.375V43.5819H11.1767V32.7802Z" fill="black"/>
<path d="M32.7802 32.7802H21.9784V43.5819H32.7802V32.7802Z" fill="black"/>
<path d="M43.5819 32.7802H32.7802V43.5819H43.5819V32.7802Z" fill="black"/>
<path d="M54.3836 32.7802H43.5819V43.5819H54.3836V32.7802Z" fill="black"/>
<path d="M75.9871 32.7802H65.1853V43.5819H75.9871V32.7802Z" fill="black"/>
<path d="M97.5905 32.7802H86.7888V43.5819H97.5905V32.7802Z" fill="black"/>
<path d="M108.392 32.7802H97.5905V43.5819H108.392V32.7802Z" fill="black"/>
<path d="M119.194 32.7802H108.392V43.5819H119.194V32.7802Z" fill="black"/>
<path d="M129.996 32.7802H119.194V43.5819H129.996V32.7802Z" fill="black"/>
<path d="M151.599 32.7802H140.797V43.5819H151.599V32.7802Z" fill="black"/>
<path d="M184.004 32.7802H173.203V43.5819H184.004V32.7802Z" fill="black"/>
<path d="M216.409 32.7802H205.608V43.5819H216.409V32.7802Z" fill="black"/>
<path d="M248.815 32.7802H238.013V43.5819H248.815V32.7802Z" fill="black"/>
<path d="M270.418 32.7802H259.616V43.5819H270.418V32.7802Z" fill="black"/>
<path d="M281.22 32.7802H270.418V43.5819H281.22V32.7802Z" fill="black"/>
<path d="M292.022 32.7802H281.22V43.5819H292.022V32.7802Z" fill="black"/>
<path d="M313.625 32.7802H302.823V43.5819H313.625V32.7802Z" fill="black"/>
<path d="M11.1767 43.5819H0.375V54.3836H11.1767V43.5819Z" fill="black"/>
<path d="M32.7802 43.5819H21.9784V54.3836H32.7802V43.5819Z" fill="black"/>
<path d="M43.5819 43.5819H32.7802V54.3836H43.5819V43.5819Z" fill="black"/>
<path d="M54.3836 43.5819H43.5819V54.3836H54.3836V43.5819Z" fill="black"/>
<path d="M75.9871 43.5819H65.1853V54.3836H75.9871V43.5819Z" fill="black"/>
<path d="M151.599 43.5819H140.797V54.3836H151.599V43.5819Z" fill="black"/>
<path d="M162.401 43.5819H151.599V54.3836H162.401V43.5819Z" fill="black"/>
<path d="M173.203 43.5819H162.401V54.3836H173.203V43.5819Z" fill="black"/>
<path d="M194.806 43.5819H184.004V54.3836H194.806V43.5819Z" fill="black"/>
<path d="M248.815 43.5819H238.013V54.3836H248.815V43.5819Z" fill="black"/>
<path d="M270.418 43.5819H259.616V54.3836H270.418V43.5819Z" fill="black"/>
<path d="M281.22 43.5819H270.418V54.3836H281.22V43.5819Z" fill="black"/>
<path d="M292.022 43.5819H281.22V54.3836H292.022V43.5819Z" fill="black"/>
<path d="M313.625 43.5819H302.823V54.3836H313.625V43.5819Z" fill="black"/>
<path d="M11.1767 54.3836H0.375V65.1853H11.1767V54.3836Z" fill="black"/>
<path d="M75.9871 54.3836H65.1853V65.1853H75.9871V54.3836Z" fill="black"/>
<path d="M97.5905 54.3836H86.7888V65.1853H97.5905V54.3836Z" fill="black"/>
<path d="M108.392 54.3836H97.5905V65.1853H108.392V54.3836Z" fill="black"/>
<path d="M119.194 54.3836H108.392V65.1853H119.194V54.3836Z" fill="black"/>
<path d="M129.996 54.3836H119.194V65.1853H129.996V54.3836Z" fill="black"/>
<path d="M140.797 54.3836H129.996V65.1853H140.797V54.3836Z" fill="black"/>
<path d="M151.599 54.3836H140.797V65.1853H151.599V54.3836Z" fill="black"/>
<path d="M173.203 54.3836H162.401V65.1853H173.203V54.3836Z" fill="black"/>
<path d="M184.004 54.3836H173.203V65.1853H184.004V54.3836Z" fill="black"/>
<path d="M248.815 54.3836H238.013V65.1853H248.815V54.3836Z" fill="black"/>
<path d="M313.625 54.3836H302.823V65.1853H313.625V54.3836Z" fill="black"/>
<path d="M11.1767 65.1853H0.375V75.9871H11.1767V65.1853Z" fill="black"/>
<path d="M21.9784 65.1853H11.1767V75.9871H21.9784V65.1853Z" fill="black"/>
<path d="M32.7802 65.1853H21.9784V75.9871H32.7802V65.1853Z" fill="black"/>
<path d="M43.5819 65.1853H32.7802V75.9871H43.5819V65.1853Z" fill="black"/>
<path d="M54.3836 65.1853H43.5819V75.9871H54.3836V65.1853Z" fill="black"/>
<path d="M65.1853 65.1853H54.3836V75.9871H65.1853V65.1853Z" fill="black"/>
<path d="M75.9871 65.1853H65.1853V75.9871H75.9871V65.1853Z" fill="black"/>
<path d="M97.5905 65.1853H86.7888V75.9871H97.5905V65.1853Z" fill="black"/>
<path d="M119.194 65.1853H108.392V75.9871H119.194V65.1853Z" fill="black"/>
<path d="M140.797 65.1853H129.996V75.9871H140.797V65.1853Z" fill="black"/>
<path d="M162.401 65.1853H151.599V75.9871H162.401V65.1853Z" fill="black"/>
<path d="M184.004 65.1853H173.203V75.9871H184.004V65.1853Z" fill="black"/>
<path d="M205.608 65.1853H194.806V75.9871H205.608V65.1853Z" fill="black"/>
<path d="M227.211 65.1853H216.409V75.9871H227.211V65.1853Z" fill="black"/>
<path d="M248.815 65.1853H238.013V75.9871H248.815V65.1853Z" fill="black"/>
<path d="M259.616 65.1853H248.815V75.9871H259.616V65.1853Z" fill="black"/>
<path d="M270.418 65.1853H259.616V75.9871H270.418V65.1853Z" fill="black"/>
<path d="M281.22 65.1853H270.418V75.9871H281.22V65.1853Z" fill="black"/>
<path d="M292.022 65.1853H281.22V75.9871H292.022V65.1853Z" fill="black"/>
<path d="M302.823 65.1853H292.022V75.9871H302.823V65.1853Z" fill="black"/>
<path d="M313.625 65.1853H302.823V75.9871H313.625V65.1853Z" fill="black"/>
<path d="M108.392 75.9871H97.5905V86.7888H108.392V75.9871Z" fill="black"/>
<path d="M162.401 75.9871H151.599V86.7888H162.401V75.9871Z" fill="black"/>
<path d="M194.806 75.9871H184.004V86.7888H194.806V75.9871Z" fill="black"/>
<path d="M205.608 75.9871H194.806V86.7888H205.608V75.9871Z" fill="black"/>
<path d="M216.409 75.9871H205.608V86.7888H216.409V75.9871Z" fill="black"/>
<path d="M227.211 75.9871H216.409V86.7888H227.211V75.9871Z" fill="black"/>
<path d="M65.1853 86.7888H54.3836V97.5905H65.1853V86.7888Z" fill="black"/>
<path d="M75.9871 86.7888H65.1853V97.5905H75.9871V86.7888Z" fill="black"/>
<path d="M97.5905 86.7888H86.7888V97.5905H97.5905V86.7888Z" fill="black"/>
<path d="M108.392 86.7888H97.5905V97.5905H108.392V86.7888Z" fill="black"/>
<path d="M129.996 86.7888H119.194V97.5905H129.996V86.7888Z" fill="black"/>
<path d="M140.797 86.7888H129.996V97.5905H140.797V86.7888Z" fill="black"/>
<path d="M162.401 86.7888H151.599V97.5905H162.401V86.7888Z" fill="black"/>
<path d="M173.203 86.7888H162.401V97.5905H173.203V86.7888Z" fill="black"/>
<path d="M184.004 86.7888H173.203V97.5905H184.004V86.7888Z" fill="black"/>
<path d="M194.806 86.7888H184.004V97.5905H194.806V86.7888Z" fill="black"/>
<path d="M238.013 86.7888H227.211V97.5905H238.013V86.7888Z" fill="black"/>
<path d="M259.616 86.7888H248.815V97.5905H259.616V86.7888Z" fill="black"/>
<path d="M281.22 86.7888H270.418V97.5905H281.22V86.7888Z" fill="black"/>
<path d="M313.625 86.7888H302.823V97.5905H313.625V86.7888Z" fill="black"/>
<path d="M11.1767 97.5905H0.375V108.392H11.1767V97.5905Z" fill="black"/>
<path d="M43.5819 97.5905H32.7802V108.392H43.5819V97.5905Z" fill="black"/>
<path d="M86.7888 97.5905H75.9871V108.392H86.7888V97.5905Z" fill="black"/>
<path d="M97.5905 97.5905H86.7888V108.392H97.5905V97.5905Z" fill="black"/>
<path d="M108.392 97.5905H97.5905V108.392H108.392V97.5905Z" fill="black"/>
<path d="M173.203 97.5905H162.401V108.392H173.203V97.5905Z" fill="black"/>
<path d="M194.806 97.5905H184.004V108.392H194.806V97.5905Z" fill="black"/>
<path d="M216.409 97.5905H205.608V108.392H216.409V97.5905Z" fill="black"/>
<path d="M238.013 97.5905H227.211V108.392H238.013V97.5905Z" fill="black"/>
<path d="M11.1767 108.392H0.375V119.194H11.1767V108.392Z" fill="black"/>
<path d="M43.5819 108.392H32.7802V119.194H43.5819V108.392Z" fill="black"/>
<path d="M54.3836 108.392H43.5819V119.194H54.3836V108.392Z" fill="black"/>
<path d="M75.9871 108.392H65.1853V119.194H75.9871V108.392Z" fill="black"/>
<path d="M86.7888 108.392H75.9871V119.194H86.7888V108.392Z" fill="black"/>
<path d="M97.5905 108.392H86.7888V119.194H97.5905V108.392Z" fill="black"/>
<path d="M119.194 108.392H108.392V119.194H119.194V108.392Z" fill="black"/>
<path d="M140.797 108.392H129.996V119.194H140.797V108.392Z" fill="black"/>
<path d="M173.203 108.392H162.401V119.194H173.203V108.392Z" fill="black"/>
<path d="M205.608 108.392H194.806V119.194H205.608V108.392Z" fill="black"/>
<path d="M227.211 108.392H216.409V119.194H227.211V108.392Z" fill="black"/>
<path d="M248.815 108.392H238.013V119.194H248.815V108.392Z" fill="black"/>
<path d="M270.418 108.392H259.616V119.194H270.418V108.392Z" fill="black"/>
<path d="M292.022 108.392H281.22V119.194H292.022V108.392Z" fill="black"/>
<path d="M313.625 108.392H302.823V119.194H313.625V108.392Z" fill="black"/>
<path d="M65.1853 119.194H54.3836V129.996H65.1853V119.194Z" fill="black"/>
<path d="M119.194 119.194H108.392V129.996H119.194V119.194Z" fill="black"/>
<path d="M151.599 119.194H140.797V129.996H151.599V119.194Z" fill="black"/>
<path d="M162.401 119.194H151.599V129.996H162.401V119.194Z" fill="black"/>
<path d="M184.004 119.194H173.203V129.996H184.004V119.194Z" fill="black"/>
<path d="M205.608 119.194H194.806V129.996H205.608V119.194Z" fill="black"/>
<path d="M216.409 119.194H205.608V129.996H216.409V119.194Z" fill="black"/>
<path d="M227.211 119.194H216.409V129.996H227.211V119.194Z" fill="black"/>
<path d="M238.013 119.194H227.211V129.996H238.013V119.194Z" fill="black"/>
<path d="M259.616 119.194H248.815V129.996H259.616V119.194Z" fill="black"/>
<path d="M270.418 119.194H259.616V129.996H270.418V119.194Z" fill="black"/>
<path d="M32.7802 129.996H21.9784V140.797H32.7802V129.996Z" fill="black"/>
<path d="M75.9871 129.996H65.1853V140.797H75.9871V129.996Z" fill="black"/>
<path d="M97.5905 129.996H86.7888V140.797H97.5905V129.996Z" fill="black"/>
<path d="M108.392 129.996H97.5905V140.797H108.392V129.996Z" fill="black"/>
<path d="M119.194 129.996H108.392V140.797H119.194V129.996Z" fill="black"/>
<path d="M129.996 129.996H119.194V140.797H129.996V129.996Z" fill="black"/>
<path d="M140.797 129.996H129.996V140.797H140.797V129.996Z" fill="black"/>
<path d="M162.401 129.996H151.599V140.797H162.401V129.996Z" fill="black"/>
<path d="M173.203 129.996H162.401V140.797H173.203V129.996Z" fill="black"/>
<path d="M205.608 129.996H194.806V140.797H205.608V129.996Z" fill="black"/>
<path d="M216.409 129.996H205.608V140.797H216.409V129.996Z" fill="black"/>
<path d="M248.815 129.996H238.013V140.797H248.815V129.996Z" fill="black"/>
<path d="M270.418 129.996H259.616V140.797H270.418V129.996Z" fill="black"/>
<path d="M292.022 129.996H281.22V140.797H292.022V129.996Z" fill="black"/>
<path d="M313.625 129.996H302.823V140.797H313.625V129.996Z" fill="black"/>
<path d="M11.1767 140.797H0.375V151.599H11.1767V140.797Z" fill="black"/>
<path d="M21.9784 140.797H11.1767V151.599H21.9784V140.797Z" fill="black"/>
<path d="M32.7802 140.797H21.9784V151.599H32.7802V140.797Z" fill="black"/>
<path d="M43.5819 140.797H32.7802V151.599H43.5819V140.797Z" fill="black"/>
<path d="M54.3836 140.797H43.5819V151.599H54.3836V140.797Z" fill="black"/>
<path d="M65.1853 140.797H54.3836V151.599H65.1853V140.797Z" fill="black"/>
<path d="M173.203 140.797H162.401V151.599H173.203V140.797Z" fill="black"/>
<path d="M184.004 140.797H173.203V151.599H184.004V140.797Z" fill="black"/>
<path d="M205.608 140.797H194.806V151.599H205.608V140.797Z" fill="black"/>
<path d="M216.409 140.797H205.608V151.599H216.409V140.797Z" fill="black"/>
<path d="M238.013 140.797H227.211V151.599H238.013V140.797Z" fill="black"/>
<path d="M248.815 140.797H238.013V151.599H248.815V140.797Z" fill="black"/>
<path d="M259.616 140.797H248.815V151.599H259.616V140.797Z" fill="black"/>
<path d="M302.823 140.797H292.022V151.599H302.823V140.797Z" fill="black"/>
<path d="M313.625 140.797H302.823V151.599H313.625V140.797Z" fill="black"/>
<path d="M21.9784 151.599H11.1767V162.401H21.9784V151.599Z" fill="black"/>
<path d="M43.5819 151.599H32.7802V162.401H43.5819V151.599Z" fill="black"/>
<path d="M54.3836 151.599H43.5819V162.401H54.3836V151.599Z" fill="black"/>
<path d="M65.1853 151.599H54.3836V162.401H65.1853V151.599Z" fill="black"/>
<path d="M75.9871 151.599H65.1853V162.401H75.9871V151.599Z" fill="black"/>
<path d="M86.7888 151.599H75.9871V162.401H86.7888V151.599Z" fill="black"/>
<path d="M108.392 151.599H97.5905V162.401H108.392V151.599Z" fill="black"/>
<path d="M129.996 151.599H119.194V162.401H129.996V151.599Z" fill="black"/>
<path d="M173.203 151.599H162.401V162.401H173.203V151.599Z" fill="black"/>
<path d="M184.004 151.599H173.203V162.401H184.004V151.599Z" fill="black"/>
<path d="M227.211 151.599H216.409V162.401H227.211V151.599Z" fill="black"/>
<path d="M248.815 151.599H238.013V162.401H248.815V151.599Z" fill="black"/>
<path d="M270.418 151.599H259.616V162.401H270.418V151.599Z" fill="black"/>
<path d="M281.22 151.599H270.418V162.401H281.22V151.599Z" fill="black"/>
<path d="M313.625 151.599H302.823V162.401H313.625V151.599Z" fill="black"/>
<path d="M21.9784 162.401H11.1767V173.203H21.9784V162.401Z" fill="black"/>
<path d="M43.5819 162.401H32.7802V173.203H43.5819V162.401Z" fill="black"/>
<path d="M97.5905 162.401H86.7888V173.203H97.5905V162.401Z" fill="black"/>
<path d="M108.392 162.401H97.5905V173.203H108.392V162.401Z" fill="black"/>
<path d="M129.996 162.401H119.194V173.203H129.996V162.401Z" fill="black"/>
<path d="M151.599 162.401H140.797V173.203H151.599V162.401Z" fill="black"/>
<path d="M162.401 162.401H151.599V173.203H162.401V162.401Z" fill="black"/>
<path d="M184.004 162.401H173.203V173.203H184.004V162.401Z" fill="black"/>
<path d="M194.806 162.401H184.004V173.203H194.806V162.401Z" fill="black"/>
<path d="M216.409 162.401H205.608V173.203H216.409V162.401Z" fill="black"/>
<path d="M238.013 162.401H227.211V173.203H238.013V162.401Z" fill="black"/>
<path d="M248.815 162.401H238.013V173.203H248.815V162.401Z" fill="black"/>
<path d="M270.418 162.401H259.616V173.203H270.418V162.401Z" fill="black"/>
<path d="M281.22 162.401H270.418V173.203H281.22V162.401Z" fill="black"/>
<path d="M302.823 162.401H292.022V173.203H302.823V162.401Z" fill="black"/>
<path d="M11.1767 173.203H0.375V184.004H11.1767V173.203Z" fill="black"/>
<path d="M32.7802 173.203H21.9784V184.004H32.7802V173.203Z" fill="black"/>
<path d="M54.3836 173.203H43.5819V184.004H54.3836V173.203Z" fill="black"/>
<path d="M75.9871 173.203H65.1853V184.004H75.9871V173.203Z" fill="black"/>
<path d="M119.194 173.203H108.392V184.004H119.194V173.203Z" fill="black"/>
<path d="M140.797 173.203H129.996V184.004H140.797V173.203Z" fill="black"/>
<path d="M162.401 173.203H151.599V184.004H162.401V173.203Z" fill="black"/>
<path d="M173.203 173.203H162.401V184.004H173.203V173.203Z" fill="black"/>
<path d="M184.004 173.203H173.203V184.004H184.004V173.203Z" fill="black"/>
<path d="M216.409 173.203H205.608V184.004H216.409V173.203Z" fill="black"/>
<path d="M227.211 173.203H216.409V184.004H227.211V173.203Z" fill="black"/>
<path d="M238.013 173.203H227.211V184.004H238.013V173.203Z" fill="black"/>
<path d="M259.616 173.203H248.815V184.004H259.616V173.203Z" fill="black"/>
<path d="M281.22 173.203H270.418V184.004H281.22V173.203Z" fill="black"/>
<path d="M21.9784 184.004H11.1767V194.806H21.9784V184.004Z" fill="black"/>
<path d="M32.7802 184.004H21.9784V194.806H32.7802V184.004Z" fill="black"/>
<path d="M86.7888 184.004H75.9871V194.806H86.7888V184.004Z" fill="black"/>
<path d="M119.194 184.004H108.392V194.806H119.194V184.004Z" fill="black"/>
<path d="M140.797 184.004H129.996V194.806H140.797V184.004Z" fill="black"/>
<path d="M151.599 184.004H140.797V194.806H151.599V184.004Z" fill="black"/>
<path d="M173.203 184.004H162.401V194.806H173.203V184.004Z" fill="black"/>
<path d="M184.004 184.004H173.203V194.806H184.004V184.004Z" fill="black"/>
<path d="M205.608 184.004H194.806V194.806H205.608V184.004Z" fill="black"/>
<path d="M216.409 184.004H205.608V194.806H216.409V184.004Z" fill="black"/>
<path d="M248.815 184.004H238.013V194.806H248.815V184.004Z" fill="black"/>
<path d="M11.1767 194.806H0.375V205.608H11.1767V194.806Z" fill="black"/>
<path d="M21.9784 194.806H11.1767V205.608H21.9784V194.806Z" fill="black"/>
<path d="M32.7802 194.806H21.9784V205.608H32.7802V194.806Z" fill="black"/>
<path d="M43.5819 194.806H32.7802V205.608H43.5819V194.806Z" fill="black"/>
<path d="M54.3836 194.806H43.5819V205.608H54.3836V194.806Z" fill="black"/>
<path d="M75.9871 194.806H65.1853V205.608H75.9871V194.806Z" fill="black"/>
<path d="M86.7888 194.806H75.9871V205.608H86.7888V194.806Z" fill="black"/>
<path d="M97.5905 194.806H86.7888V205.608H97.5905V194.806Z" fill="black"/>
<path d="M151.599 194.806H140.797V205.608H151.599V194.806Z" fill="black"/>
<path d="M173.203 194.806H162.401V205.608H173.203V194.806Z" fill="black"/>
<path d="M194.806 194.806H184.004V205.608H194.806V194.806Z" fill="black"/>
<path d="M205.608 194.806H194.806V205.608H205.608V194.806Z" fill="black"/>
<path d="M216.409 194.806H205.608V205.608H216.409V194.806Z" fill="black"/>
<path d="M227.211 194.806H216.409V205.608H227.211V194.806Z" fill="black"/>
<path d="M259.616 194.806H248.815V205.608H259.616V194.806Z" fill="black"/>
<path d="M270.418 194.806H259.616V205.608H270.418V194.806Z" fill="black"/>
<path d="M11.1767 205.608H0.375V216.409H11.1767V205.608Z" fill="black"/>
<path d="M65.1853 205.608H54.3836V216.409H65.1853V205.608Z" fill="black"/>
<path d="M97.5905 205.608H86.7888V216.409H97.5905V205.608Z" fill="black"/>
<path d="M119.194 205.608H108.392V216.409H119.194V205.608Z" fill="black"/>
<path d="M129.996 205.608H119.194V216.409H129.996V205.608Z" fill="black"/>
<path d="M151.599 205.608H140.797V216.409H151.599V205.608Z" fill="black"/>
<path d="M216.409 205.608H205.608V216.409H216.409V205.608Z" fill="black"/>
<path d="M281.22 205.608H270.418V216.409H281.22V205.608Z" fill="black"/>
<path d="M292.022 205.608H281.22V216.409H292.022V205.608Z" fill="black"/>
<path d="M302.823 205.608H292.022V216.409H302.823V205.608Z" fill="black"/>
<path d="M32.7802 216.409H21.9784V227.211H32.7802V216.409Z" fill="black"/>
<path d="M75.9871 216.409H65.1853V227.211H75.9871V216.409Z" fill="black"/>
<path d="M108.392 216.409H97.5905V227.211H108.392V216.409Z" fill="black"/>
<path d="M119.194 216.409H108.392V227.211H119.194V216.409Z" fill="black"/>
<path d="M151.599 216.409H140.797V227.211H151.599V216.409Z" fill="black"/>
<path d="M173.203 216.409H162.401V227.211H173.203V216.409Z" fill="black"/>
<path d="M184.004 216.409H173.203V227.211H184.004V216.409Z" fill="black"/>
<path d="M194.806 216.409H184.004V227.211H194.806V216.409Z" fill="black"/>
<path d="M227.211 216.409H216.409V227.211H227.211V216.409Z" fill="black"/>
<path d="M238.013 216.409H227.211V227.211H238.013V216.409Z" fill="black"/>
<path d="M248.815 216.409H238.013V227.211H248.815V216.409Z" fill="black"/>
<path d="M259.616 216.409H248.815V227.211H259.616V216.409Z" fill="black"/>
<path d="M270.418 216.409H259.616V227.211H270.418V216.409Z" fill="black"/>
<path d="M302.823 216.409H292.022V227.211H302.823V216.409Z" fill="black"/>
<path d="M313.625 216.409H302.823V227.211H313.625V216.409Z" fill="black"/>
<path d="M97.5905 227.211H86.7888V238.013H97.5905V227.211Z" fill="black"/>
<path d="M140.797 227.211H129.996V238.013H140.797V227.211Z" fill="black"/>
<path d="M162.401 227.211H151.599V238.013H162.401V227.211Z" fill="black"/>
<path d="M173.203 227.211H162.401V238.013H173.203V227.211Z" fill="black"/>
<path d="M184.004 227.211H173.203V238.013H184.004V227.211Z" fill="black"/>
<path d="M194.806 227.211H184.004V238.013H194.806V227.211Z" fill="black"/>
<path d="M205.608 227.211H194.806V238.013H205.608V227.211Z" fill="black"/>
<path d="M227.211 227.211H216.409V238.013H227.211V227.211Z" fill="black"/>
<path d="M270.418 227.211H259.616V238.013H270.418V227.211Z" fill="black"/>
<path d="M292.022 227.211H281.22V238.013H292.022V227.211Z" fill="black"/>
<path d="M302.823 227.211H292.022V238.013H302.823V227.211Z" fill="black"/>
<path d="M11.1767 238.013H0.375V248.815H11.1767V238.013Z" fill="black"/>
<path d="M21.9784 238.013H11.1767V248.815H21.9784V238.013Z" fill="black"/>
<path d="M32.7802 238.013H21.9784V248.815H32.7802V238.013Z" fill="black"/>
<path d="M43.5819 238.013H32.7802V248.815H43.5819V238.013Z" fill="black"/>
<path d="M54.3836 238.013H43.5819V248.815H54.3836V238.013Z" fill="black"/>
<path d="M65.1853 238.013H54.3836V248.815H65.1853V238.013Z" fill="black"/>
<path d="M75.9871 238.013H65.1853V248.815H75.9871V238.013Z" fill="black"/>
<path d="M108.392 238.013H97.5905V248.815H108.392V238.013Z" fill="black"/>
<path d="M129.996 238.013H119.194V248.815H129.996V238.013Z" fill="black"/>
<path d="M140.797 238.013H129.996V248.815H140.797V238.013Z" fill="black"/>
<path d="M162.401 238.013H151.599V248.815H162.401V238.013Z" fill="black"/>
<path d="M194.806 238.013H184.004V248.815H194.806V238.013Z" fill="black"/>
<path d="M227.211 238.013H216.409V248.815H227.211V238.013Z" fill="black"/>
<path d="M248.815 238.013H238.013V248.815H248.815V238.013Z" fill="black"/>
<path d="M270.418 238.013H259.616V248.815H270.418V238.013Z" fill="black"/>
<path d="M281.22 238.013H270.418V248.815H281.22V238.013Z" fill="black"/>
<path d="M313.625 238.013H302.823V248.815H313.625V238.013Z" fill="black"/>
<path d="M11.1767 248.815H0.375V259.616H11.1767V248.815Z" fill="black"/>
<path d="M75.9871 248.815H65.1853V259.616H75.9871V248.815Z" fill="black"/>
<path d="M97.5905 248.815H86.7888V259.616H97.5905V248.815Z" fill="black"/>
<path d="M119.194 248.815H108.392V259.616H119.194V248.815Z" fill="black"/>
<path d="M129.996 248.815H119.194V259.616H129.996V248.815Z" fill="black"/>
<path d="M151.599 248.815H140.797V259.616H151.599V248.815Z" fill="black"/>
<path d="M194.806 248.815H184.004V259.616H194.806V248.815Z" fill="black"/>
<path d="M205.608 248.815H194.806V259.616H205.608V248.815Z" fill="black"/>
<path d="M216.409 248.815H205.608V259.616H216.409V248.815Z" fill="black"/>
<path d="M227.211 248.815H216.409V259.616H227.211V248.815Z" fill="black"/>
<path d="M270.418 248.815H259.616V259.616H270.418V248.815Z" fill="black"/>
<path d="M281.22 248.815H270.418V259.616H281.22V248.815Z" fill="black"/>
<path d="M302.823 248.815H292.022V259.616H302.823V248.815Z" fill="black"/>
<path d="M11.1767 259.616H0.375V270.418H11.1767V259.616Z" fill="black"/>
<path d="M32.7802 259.616H21.9784V270.418H32.7802V259.616Z" fill="black"/>
<path d="M43.5819 259.616H32.7802V270.418H43.5819V259.616Z" fill="black"/>
<path d="M54.3836 259.616H43.5819V270.418H54.3836V259.616Z" fill="black"/>
<path d="M75.9871 259.616H65.1853V270.418H75.9871V259.616Z" fill="black"/>
<path d="M119.194 259.616H108.392V270.418H119.194V259.616Z" fill="black"/>
<path d="M129.996 259.616H119.194V270.418H129.996V259.616Z" fill="black"/>
<path d="M162.401 259.616H151.599V270.418H162.401V259.616Z" fill="black"/>
<path d="M173.203 259.616H162.401V270.418H173.203V259.616Z" fill="black"/>
<path d="M205.608 259.616H194.806V270.418H205.608V259.616Z" fill="black"/>
<path d="M216.409 259.616H205.608V270.418H216.409V259.616Z" fill="black"/>
<path d="M227.211 259.616H216.409V270.418H227.211V259.616Z" fill="black"/>
<path d="M238.013 259.616H227.211V270.418H238.013V259.616Z" fill="black"/>
<path d="M248.815 259.616H238.013V270.418H248.815V259.616Z" fill="black"/>
<path d="M259.616 259.616H248.815V270.418H259.616V259.616Z" fill="black"/>
<path d="M270.418 259.616H259.616V270.418H270.418V259.616Z" fill="black"/>
<path d="M281.22 259.616H270.418V270.418H281.22V259.616Z" fill="black"/>
<path d="M292.022 259.616H281.22V270.418H292.022V259.616Z" fill="black"/>
<path d="M302.823 259.616H292.022V270.418H302.823V259.616Z" fill="black"/>
<path d="M313.625 259.616H302.823V270.418H313.625V259.616Z" fill="black"/>
<path d="M11.1767 270.418H0.375V281.22H11.1767V270.418Z" fill="black"/>
<path d="M32.7802 270.418H21.9784V281.22H32.7802V270.418Z" fill="black"/>
<path d="M43.5819 270.418H32.7802V281.22H43.5819V270.418Z" fill="black"/>
<path d="M54.3836 270.418H43.5819V281.22H54.3836V270.418Z" fill="black"/>
<path d="M75.9871 270.418H65.1853V281.22H75.9871V270.418Z" fill="black"/>
<path d="M108.392 270.418H97.5905V281.22H108.392V270.418Z" fill="black"/>
<path d="M119.194 270.418H108.392V281.22H119.194V270.418Z" fill="black"/>
<path d="M129.996 270.418H119.194V281.22H129.996V270.418Z" fill="black"/>
<path d="M140.797 270.418H129.996V281.22H140.797V270.418Z" fill="black"/>
<path d="M173.203 270.418H162.401V281.22H173.203V270.418Z" fill="black"/>
<path d="M184.004 270.418H173.203V281.22H184.004V270.418Z" fill="black"/>
<path d="M205.608 270.418H194.806V281.22H205.608V270.418Z" fill="black"/>
<path d="M270.418 270.418H259.616V281.22H270.418V270.418Z" fill="black"/>
<path d="M281.22 270.418H270.418V281.22H281.22V270.418Z" fill="black"/>
<path d="M11.1767 281.22H0.375V292.022H11.1767V281.22Z" fill="black"/>
<path d="M32.7802 281.22H21.9784V292.022H32.7802V281.22Z" fill="black"/>
<path d="M43.5819 281.22H32.7802V292.022H43.5819V281.22Z" fill="black"/>
<path d="M54.3836 281.22H43.5819V292.022H54.3836V281.22Z" fill="black"/>
<path d="M75.9871 281.22H65.1853V292.022H75.9871V281.22Z" fill="black"/>
<path d="M119.194 281.22H108.392V292.022H119.194V281.22Z" fill="black"/>
<path d="M129.996 281.22H119.194V292.022H129.996V281.22Z" fill="black"/>
<path d="M151.599 281.22H140.797V292.022H151.599V281.22Z" fill="black"/>
<path d="M162.401 281.22H151.599V292.022H162.401V281.22Z" fill="black"/>
<path d="M227.211 281.22H216.409V292.022H227.211V281.22Z" fill="black"/>
<path d="M238.013 281.22H227.211V292.022H238.013V281.22Z" fill="black"/>
<path d="M259.616 281.22H248.815V292.022H259.616V281.22Z" fill="black"/>
<path d="M11.1767 292.022H0.375V302.823H11.1767V292.022Z" fill="black"/>
<path d="M75.9871 292.022H65.1853V302.823H75.9871V292.022Z" fill="black"/>
<path d="M119.194 292.022H108.392V302.823H119.194V292.022Z" fill="black"/>
<path d="M129.996 292.022H119.194V302.823H129.996V292.022Z" fill="black"/>
<path d="M140.797 292.022H129.996V302.823H140.797V292.022Z" fill="black"/>
<path d="M162.401 292.022H151.599V302.823H162.401V292.022Z" fill="black"/>
<path d="M173.203 292.022H162.401V302.823H173.203V292.022Z" fill="black"/>
<path d="M184.004 292.022H173.203V302.823H184.004V292.022Z" fill="black"/>
<path d="M205.608 292.022H194.806V302.823H205.608V292.022Z" fill="black"/>
<path d="M216.409 292.022H205.608V302.823H216.409V292.022Z" fill="black"/>
<path d="M238.013 292.022H227.211V302.823H238.013V292.022Z" fill="black"/>
<path d="M248.815 292.022H238.013V302.823H248.815V292.022Z" fill="black"/>
<path d="M259.616 292.022H248.815V302.823H259.616V292.022Z" fill="black"/>
<path d="M270.418 292.022H259.616V302.823H270.418V292.022Z" fill="black"/>
<path d="M302.823 292.022H292.022V302.823H302.823V292.022Z" fill="black"/>
<path d="M313.625 292.022H302.823V302.823H313.625V292.022Z" fill="black"/>
<path d="M11.1767 302.823H0.375V313.625H11.1767V302.823Z" fill="black"/>
<path d="M21.9784 302.823H11.1767V313.625H21.9784V302.823Z" fill="black"/>
<path d="M32.7802 302.823H21.9784V313.625H32.7802V302.823Z" fill="black"/>
<path d="M43.5819 302.823H32.7802V313.625H43.5819V302.823Z" fill="black"/>
<path d="M54.3836 302.823H43.5819V313.625H54.3836V302.823Z" fill="black"/>
<path d="M65.1853 302.823H54.3836V313.625H65.1853V302.823Z" fill="black"/>
<path d="M75.9871 302.823H65.1853V313.625H75.9871V302.823Z" fill="black"/>
<path d="M108.392 302.823H97.5905V313.625H108.392V302.823Z" fill="black"/>
<path d="M140.797 302.823H129.996V313.625H140.797V302.823Z" fill="black"/>
<path d="M162.401 302.823H151.599V313.625H162.401V302.823Z" fill="black"/>
<path d="M194.806 302.823H184.004V313.625H194.806V302.823Z" fill="black"/>
<path d="M205.608 302.823H194.806V313.625H205.608V302.823Z" fill="black"/>
<path d="M216.409 302.823H205.608V313.625H216.409V302.823Z" fill="black"/>
<path d="M238.013 302.823H227.211V313.625H238.013V302.823Z" fill="black"/>
<path d="M281.22 302.823H270.418V313.625H281.22V302.823Z" fill="black"/>
<path d="M292.022 302.823H281.22V313.625H292.022V302.823Z" fill="black"/>
</svg>
